<mxfile host="app.diagrams.net" modified="2022-01-03T08:03:57.202Z" agent="5.0 (Windows NT 10.0; Win64; x64) AppleWebKit/537.36 (KHTML, like Gecko) Chrome/96.0.4664.110 Safari/537.36" etag="tGekaRXO5isJ-7pPl8lH" version="16.1.2" type="github">
  <diagram id="fH2vnUTSoNH29eiBCyoJ" name="Page-1">
    <mxGraphModel dx="813" dy="409" grid="1" gridSize="10" guides="1" tooltips="1" connect="1" arrows="1" fold="1" page="1" pageScale="1" pageWidth="850" pageHeight="1100" math="0" shadow="0">
      <root>
        <mxCell id="0" />
        <mxCell id="1" parent="0" />
        <mxCell id="SVZLzhab-mm46RzC1753-1" value="MATLAB" style="rounded=0;whiteSpace=wrap;html=1;" vertex="1" parent="1">
          <mxGeometry x="80" y="230" width="70" height="60" as="geometry" />
        </mxCell>
        <mxCell id="SVZLzhab-mm46RzC1753-2" value="FTDI Library" style="rounded=0;whiteSpace=wrap;html=1;rotation=-90;" vertex="1" parent="1">
          <mxGeometry x="142.5" y="237.5" width="60" height="45" as="geometry" />
        </mxCell>
        <mxCell id="SVZLzhab-mm46RzC1753-4" value="USB Drivers" style="rounded=0;whiteSpace=wrap;html=1;rotation=-90;" vertex="1" parent="1">
          <mxGeometry x="187.5" y="237.5" width="60" height="45" as="geometry" />
        </mxCell>
        <mxCell id="SVZLzhab-mm46RzC1753-5" value="FTDI&amp;nbsp;&lt;br&gt;USB&amp;lt;-&amp;gt;SPI&lt;br&gt;Chip" style="rounded=0;whiteSpace=wrap;html=1;" vertex="1" parent="1">
          <mxGeometry x="290" y="230" width="70" height="60" as="geometry" />
        </mxCell>
        <mxCell id="SVZLzhab-mm46RzC1753-6" value="ADCs&lt;br&gt;DAC" style="rounded=0;whiteSpace=wrap;html=1;" vertex="1" parent="1">
          <mxGeometry x="410" y="230" width="60" height="60" as="geometry" />
        </mxCell>
        <mxCell id="SVZLzhab-mm46RzC1753-7" value="" style="endArrow=classic;startArrow=classic;html=1;rounded=0;entryX=0;entryY=0.5;entryDx=0;entryDy=0;exitX=0.5;exitY=1;exitDx=0;exitDy=0;" edge="1" parent="1" source="SVZLzhab-mm46RzC1753-4" target="SVZLzhab-mm46RzC1753-5">
          <mxGeometry width="50" height="50" relative="1" as="geometry">
            <mxPoint x="210" y="420" as="sourcePoint" />
            <mxPoint x="260" y="370" as="targetPoint" />
          </mxGeometry>
        </mxCell>
        <mxCell id="SVZLzhab-mm46RzC1753-8" value="" style="endArrow=classic;startArrow=classic;html=1;rounded=0;entryX=0;entryY=0.5;entryDx=0;entryDy=0;exitX=0.5;exitY=1;exitDx=0;exitDy=0;" edge="1" parent="1">
          <mxGeometry width="50" height="50" relative="1" as="geometry">
            <mxPoint x="360" y="259.71" as="sourcePoint" />
            <mxPoint x="410" y="259.71" as="targetPoint" />
          </mxGeometry>
        </mxCell>
      </root>
    </mxGraphModel>
  </diagram>
</mxfile>
